<?xml version="1.0" standalone="no"?>
<!DOCTYPE svg PUBLIC "-//W3C//DTD SVG 20010904//EN"
 "http://www.w3.org/TR/2001/REC-SVG-20010904/DTD/svg10.dtd">
<svg version="1.0" xmlns="http://www.w3.org/2000/svg"
 width="341.000000pt" height="341.000000pt" viewBox="0 0 341.000000 341.000000"
 preserveAspectRatio="xMidYMid meet">
<metadata>
Created by potrace 1.14, written by Peter Selinger 2001-2017
</metadata>
<g transform="translate(0.000000,341.000000) scale(0.100000,-0.100000)"
fill="#000000" stroke="none">
<path d="M0 2155 l0 -1255 93 34 c318 117 591 265 757 411 74 65 151 152 170
193 11 23 30 63 43 90 55 117 8 292 -100 373 -18 13 -33 28 -33 32 0 4 16 -4
35 -18 36 -28 62 -26 46 3 -10 19 -3 80 10 88 5 3 9 20 9 38 0 20 8 40 20 51
11 10 23 34 26 54 4 20 14 50 22 66 20 39 24 62 27 168 5 126 8 137 48 137 17
0 47 -9 64 -20 25 -15 65 -22 175 -31 79 -6 155 -17 169 -25 22 -11 119 -141
119 -159 0 -4 18 -27 40 -51 39 -43 40 -45 24 -69 -8 -13 -13 -33 -10 -43 5
-14 1 -21 -14 -25 -20 -5 -26 -28 -21 -87 2 -25 129 -160 151 -160 5 0 10 18
10 40 0 52 18 52 26 -1 4 -23 15 -46 25 -52 11 -7 19 -20 19 -29 0 -26 18 -22
23 5 4 21 4 21 6 -3 1 -16 10 -29 25 -36 23 -11 24 -9 29 29 6 41 -8 77 -30
77 -15 0 -17 19 -4 39 6 9 11 10 15 2 19 -30 42 8 25 41 -6 11 -17 17 -25 14
-8 -3 -14 0 -14 7 0 8 -4 7 -10 -3 -7 -12 -12 -12 -35 0 -15 8 -22 17 -16 23
5 5 7 28 4 50 -4 29 -2 39 5 32 6 -5 12 -21 14 -34 1 -14 9 -27 17 -29 11 -4
13 3 8 29 -6 29 -5 31 5 14 11 -19 11 -19 18 0 4 11 4 30 -1 42 -7 20 -3 25
36 43 24 11 46 23 48 27 7 14 -8 67 -18 66 -5 -1 -9 5 -7 13 2 8 -2 14 -8 14
-5 0 -10 7 -10 15 0 8 -9 19 -20 25 -11 6 -20 18 -20 28 0 13 -2 14 -9 3 -6
-9 -11 -10 -15 -2 -9 14 -17 14 -40 -4 -19 -15 -19 -15 -1 -28 17 -13 17 -14
-5 -20 -18 -5 -22 -11 -18 -31 3 -14 1 -26 -3 -26 -5 0 -9 27 -9 60 0 47 3 60
15 60 16 0 21 26 6 32 -13 5 -24 48 -12 48 6 0 11 7 11 16 0 8 -4 13 -9 9 -6
-3 -12 12 -14 32 -2 21 -4 -36 -5 -127 -1 -91 2 -160 6 -153 5 8 13 9 22 3 13
-9 13 -10 0 -10 -8 -1 -2 -8 14 -16 21 -12 25 -18 16 -24 -10 -6 -11 -12 -2
-22 8 -11 7 -17 -9 -26 -10 -7 -19 -21 -19 -33 0 -22 -27 -79 -37 -79 -3 0 -3
295 0 655 l7 655 -134 0 -135 0 -4 -42 -4 -43 -1 43 -2 42 -810 0 -810 0 0
-1255z m2050 191 c0 -14 7 -32 16 -40 14 -15 14 -16 -4 -16 -12 0 -22 9 -26
23 -9 33 -7 57 4 57 6 0 10 -11 10 -24z m-46 -44 c2 -4 -4 -9 -15 -9 -10 -1
-19 2 -19 8 0 11 27 12 34 1z m-84 -217 c-6 -30 -8 -33 -9 -13 -1 25 8 62 14
56 2 -2 -1 -21 -5 -43z m-1035 -25 c3 -5 1 -10 -4 -10 -6 0 -11 5 -11 10 0 6
2 10 4 10 3 0 8 -4 11 -10z m1080 -60 c3 -5 1 -10 -4 -10 -6 0 -11 5 -11 10 0
6 2 10 4 10 3 0 8 -4 11 -10z m-1538 -96 c-3 -3 -12 -4 -19 -1 -8 3 -5 6 6 6
11 1 17 -2 13 -5z m-295 -106 c-7 -7 -12 -8 -12 -2 0 14 12 26 19 19 2 -3 -1
-11 -7 -17z"/>
<path d="M2962 3208 c-12 -112 -26 -273 -32 -358 -6 -85 -17 -193 -25 -240
-29 -179 -38 -248 -40 -330 -3 -125 -28 -410 -36 -410 -3 0 -4 -11 -1 -25 3
-18 0 -25 -12 -25 -9 0 -16 -4 -16 -10 0 -5 5 -10 10 -10 12 0 14 -43 3 -54
-5 -4 -13 -24 -19 -44 -9 -27 -12 -31 -13 -14 -1 12 -5 22 -9 22 -11 0 -9 -91
1 -107 5 -7 3 -21 -2 -30 -10 -17 -10 -16 -11 2 0 17 -2 17 -10 5 -6 -10 -10
-11 -10 -2 0 7 -14 12 -35 12 -24 0 -35 5 -35 15 0 8 -4 15 -8 15 -4 0 -8 12
-7 28 0 22 -5 28 -27 30 -20 2 -27 -2 -30 -18 -2 -11 -7 -22 -12 -23 -13 -3
-17 36 -4 44 15 10 0 29 -23 29 -11 0 -28 4 -37 9 -10 5 -27 5 -42 -1 -20 -7
-22 -11 -10 -19 13 -8 13 -10 0 -18 -10 -7 -20 -4 -33 10 -10 10 -23 19 -30
18 -9 0 -9 -2 1 -6 6 -2 12 -9 12 -15 0 -6 -7 -7 -16 -4 -8 3 -12 2 -9 -4 3
-6 2 -10 -3 -10 -11 0 -72 75 -72 89 0 14 -17 14 -25 1 -4 -7 -14 -5 -26 4
-23 16 -59 10 -75 -13 -10 -13 -16 -13 -38 -3 -20 9 -33 9 -47 2 -19 -11 -19
-12 3 -40 13 -16 29 -29 36 -29 15 -1 16 -35 1 -59 -10 -16 -5 -25 28 -60 22
-23 47 -42 56 -42 10 0 17 -8 17 -18 0 -11 9 -27 20 -37 20 -18 22 -18 38 -1
15 14 15 18 2 26 -11 7 -9 11 13 19 39 15 87 13 117 -4 19 -11 21 -14 8 -15
-10 0 -18 -3 -18 -8 0 -4 27 -7 59 -7 33 0 57 3 55 7 -3 5 1 8 9 8 8 0 17 -7
21 -15 3 -8 14 -15 25 -15 12 0 27 -12 36 -27 9 -16 14 -20 11 -10 -12 39 85
6 134 -45 32 -33 50 -36 43 -7 -5 19 -3 21 20 16 14 -4 32 -10 41 -13 9 -4 16
-1 16 6 0 7 7 10 15 6 8 -3 15 0 15 7 0 7 10 0 21 -15 21 -28 39 -36 39 -18 0
6 -7 10 -16 10 -10 0 -14 6 -10 15 3 8 0 15 -6 15 -8 0 -7 5 3 15 13 14 20 14
50 2 40 -17 59 -12 59 14 0 25 14 24 33 -3 15 -22 16 -22 17 -3 1 20 1 20 16
0 12 -16 16 -17 23 -6 11 17 141 32 158 19 7 -6 30 -7 53 -3 l40 7 0 984 0
984 -213 0 -214 0 -21 -202z m398 166 c0 -8 -5 -12 -10 -9 -6 4 -8 11 -5 16 9
14 15 11 15 -7z m5 -251 c3 -14 4 -28 0 -31 -3 -3 -5 0 -5 7 0 8 -8 11 -20 8
-26 -7 -47 18 -31 37 17 20 48 8 56 -21z m-58 -255 c-2 -13 -4 -3 -4 22 0 25
2 35 4 23 2 -13 2 -33 0 -45z m-1017 -1148 c0 -5 -2 -10 -4 -10 -3 0 -8 5 -11
10 -3 6 -1 10 4 10 6 0 11 -4 11 -10z m43 -16 c3 -3 1 -12 -6 -18 -12 -14 -57
-9 -57 5 0 5 12 6 26 3 19 -5 25 -4 20 5 -7 11 6 16 17 5z m197 -44 c0 -5 -2
-10 -4 -10 -3 0 -8 5 -11 10 -3 6 -1 10 4 10 6 0 11 -4 11 -10z m-37 -7 c-7
-2 -19 -2 -25 0 -7 3 -2 5 12 5 14 0 19 -2 13 -5z"/>
<path d="M2291 3194 c0 -11 3 -14 6 -6 3 7 2 16 -1 19 -3 4 -6 -2 -5 -13z"/>
<path d="M2050 3104 c0 -8 5 -12 10 -9 6 3 10 10 10 16 0 5 -4 9 -10 9 -5 0
-10 -7 -10 -16z"/>
<path d="M2053 3040 c0 -22 4 -37 8 -34 5 3 9 21 9 40 0 19 -4 34 -9 34 -4 0
-8 -18 -8 -40z"/>
<path d="M2320 2991 c-14 -27 -13 -31 11 -31 11 0 18 4 15 9 -3 5 8 11 24 15
17 3 30 11 30 17 0 8 -4 8 -13 1 -8 -7 -18 -7 -27 -2 -22 14 -28 12 -40 -9z"/>
<path d="M2047 2973 c-10 -9 -8 -61 2 -67 5 -3 12 5 15 18 3 13 9 31 12 40 6
16 -16 23 -29 9z"/>
<path d="M2230 2888 c0 -7 5 -20 10 -28 8 -12 10 -9 10 13 0 15 -4 27 -10 27
-5 0 -10 -6 -10 -12z"/>
<path d="M1965 2637 c-4 -10 -3 -23 3 -29 14 -14 21 3 12 27 -7 19 -8 19 -15
2z"/>
<path d="M2310 2604 c0 -8 5 -12 10 -9 6 3 10 10 10 16 0 5 -4 9 -10 9 -5 0
-10 -7 -10 -16z"/>
<path d="M1961 2524 c0 -11 3 -14 6 -6 3 7 2 16 -1 19 -3 4 -6 -2 -5 -13z"/>
<path d="M2162 2273 c5 -25 28 -28 28 -4 0 12 -6 21 -16 21 -9 0 -14 -7 -12
-17z"/>
<path d="M2147 2224 c-4 -4 -7 -22 -7 -41 0 -26 -4 -33 -20 -33 -18 0 -30 -19
-12 -21 4 0 22 -2 40 -3 25 -3 32 0 32 15 0 10 5 21 10 24 6 3 10 18 10 32 0
20 -4 24 -20 20 -10 -3 -20 -1 -22 5 -2 5 -7 6 -11 2z"/>
<path d="M2570 2160 c0 -5 5 -10 10 -10 6 0 10 5 10 10 0 6 -4 10 -10 10 -5 0
-10 -4 -10 -10z"/>
<path d="M2280 2115 c0 -8 5 -15 10 -15 6 0 10 7 10 15 0 8 -4 15 -10 15 -5 0
-10 -7 -10 -15z"/>
<path d="M2240 2091 c0 -25 6 -27 13 -6 4 8 2 17 -3 20 -6 4 -10 -3 -10 -14z"/>
<path d="M2336 2076 c-8 -14 -12 -27 -7 -30 9 -6 37 41 29 49 -3 3 -13 -6 -22
-19z"/>
<path d="M2577 2056 c-6 -15 1 -26 15 -26 4 0 8 9 8 20 0 23 -15 27 -23 6z"/>
<path d="M2278 2035 c2 -14 8 -23 12 -20 10 6 1 45 -10 45 -4 0 -5 -11 -2 -25z"/>
<path d="M2251 2024 c0 -11 3 -14 6 -6 3 7 2 16 -1 19 -3 4 -6 -2 -5 -13z"/>
<path d="M2236 1968 c3 -5 10 -6 15 -3 13 9 11 12 -6 12 -8 0 -12 -4 -9 -9z"/>
<path d="M2089 1942 c9 -34 31 -41 31 -9 0 16 -7 26 -19 30 -16 4 -18 1 -12
-21z"/>
<path d="M2282 1928 c-2 -42 1 -48 18 -48 11 0 20 4 20 10 0 5 -6 7 -14 4 -11
-4 -16 5 -19 38 l-4 43 -1 -47z"/>
<path d="M2757 1938 c-8 -55 8 -54 19 0 4 19 2 32 -4 32 -5 0 -12 -15 -15 -32z"/>
<path d="M2232 1920 c0 -19 2 -27 5 -17 2 9 2 25 0 35 -3 9 -5 1 -5 -18z"/>
<path d="M2050 1926 c0 -9 5 -16 10 -16 6 0 10 4 10 9 0 6 -4 13 -10 16 -5 3
-10 -1 -10 -9z"/>
<path d="M2752 1881 c2 -7 7 -12 11 -12 12 1 9 15 -3 20 -7 2 -11 -2 -8 -8z"/>
<path d="M2115 1840 c-7 -11 22 -33 35 -25 5 3 10 10 10 14 0 12 -39 21 -45
11z"/>
<path d="M2640 1819 c0 -11 4 -18 10 -14 5 3 7 12 3 20 -7 21 -13 19 -13 -6z"/>
<path d="M2430 1790 c0 -5 5 -10 11 -10 5 0 7 5 4 10 -3 6 -8 10 -11 10 -2 0
-4 -4 -4 -10z"/>
<path d="M2425 1740 c-9 -15 -1 -23 21 -18 15 3 16 4 1 16 -11 9 -17 10 -22 2z"/>
<path d="M1280 1611 c0 -10 -7 -21 -15 -25 -8 -3 -15 -13 -15 -21 0 -24 44
-15 49 10 2 11 10 24 18 29 13 7 13 10 2 17 -23 14 -39 10 -39 -10z"/>
<path d="M2685 1610 c3 -5 10 -10 16 -10 5 0 9 5 9 10 0 6 -7 10 -16 10 -8 0
-12 -4 -9 -10z"/>
<path d="M1099 1535 c-4 -5 -7 -45 -8 -89 -3 -146 -58 -329 -119 -399 -11 -12
-18 -51 -23 -125 -5 -59 -13 -147 -19 -197 -6 -49 -15 -146 -20 -215 -5 -69
-13 -156 -16 -195 -4 -38 -8 -114 -8 -167 -1 -54 -4 -98 -8 -98 -5 0 -8 -11
-8 -24 l0 -25 406 0 405 0 -7 22 c-3 12 -11 28 -17 35 -15 19 -7 21 52 10 37
-6 57 -6 64 1 8 8 5 11 -9 11 -11 0 -24 4 -30 9 -5 5 -18 11 -29 14 -11 3 3 3
30 0 28 -3 52 -10 53 -14 2 -5 10 -9 18 -9 8 0 14 -10 14 -24 0 -33 20 -44 36
-21 12 16 14 16 20 2 3 -9 3 -20 0 -26 -4 -5 35 -9 97 -10 69 0 97 2 86 9 -10
6 -15 18 -12 34 3 13 0 27 -6 30 -6 4 -11 18 -11 32 0 20 4 24 19 19 14 -4 21
0 26 15 5 15 14 20 38 19 l32 -1 -29 -7 c-34 -7 -33 -20 2 -38 31 -16 28 -17
37 10 6 20 7 20 16 -10 9 -32 31 -43 44 -23 3 6 1 10 -4 10 -6 0 -11 9 -11 20
0 11 4 20 10 20 5 0 7 7 4 15 -4 9 0 15 9 15 10 0 14 -7 11 -22 -4 -22 -4 -22
6 -2 14 25 62 44 91 37 15 -4 20 -2 15 5 -3 6 1 15 10 20 9 5 15 13 13 18 -1
5 5 10 14 12 12 2 22 -8 31 -30 15 -33 21 -29 28 17 4 23 21 23 24 -1 4 -26
11 -27 32 -4 16 17 21 18 31 6 9 -11 8 -17 -5 -31 -9 -9 -23 -14 -30 -11 -8 3
-14 1 -14 -4 0 -6 7 -10 16 -10 13 0 14 -3 5 -14 -8 -9 -8 -16 -2 -20 6 -4 17
6 25 21 l15 28 1 -29 c0 -26 22 -55 43 -56 4 0 7 11 7 23 0 16 9 28 25 35 25
12 39 3 30 -20 -3 -7 9 -23 26 -35 30 -21 30 -21 9 -28 -15 -5 -26 -2 -31 6
-7 11 -9 10 -9 -3 0 -21 7 -26 58 -34 40 -6 42 -5 42 19 0 14 4 29 10 32 5 3
10 1 10 -5 0 -6 5 -8 11 -4 6 3 15 1 19 -7 7 -10 11 -10 24 0 8 7 25 11 38 9
25 -5 15 -11 -37 -23 -29 -7 -30 -7 -7 -18 12 -5 22 -14 22 -19 0 -4 7 -8 15
-8 20 0 19 10 -2 26 -10 7 -13 14 -6 14 6 0 14 -4 18 -10 3 -5 12 -7 20 -3 20
7 45 -15 38 -33 -3 -9 2 -14 15 -14 11 0 23 8 25 18 4 16 5 16 6 0 1 -17 17
-18 195 -18 119 0 197 4 201 10 3 5 17 10 31 10 19 0 24 5 24 24 0 23 -2 24
-117 28 -77 3 -118 8 -121 16 -4 14 -44 16 -58 3 -5 -5 -21 -7 -37 -4 -26 5
-26 6 -10 20 16 13 15 13 -14 8 -18 -4 -34 -2 -38 4 -3 7 2 11 14 11 14 0 19
5 15 15 -5 11 -11 12 -24 5 -28 -15 -33 -12 -26 17 8 31 -9 46 -37 32 -14 -8
-16 -13 -6 -25 9 -11 7 -14 -14 -14 -31 0 -41 -13 -32 -40 8 -24 28 -26 45 -5
10 13 9 15 -9 15 -11 0 -21 5 -21 10 0 16 37 11 44 -6 3 -8 2 -24 -4 -33 -10
-20 4 -45 30 -53 8 -2 10 -7 4 -10 -5 -4 -25 7 -44 24 -19 17 -46 39 -58 49
-22 17 -23 20 -8 35 13 12 14 19 5 30 -8 10 -8 14 0 14 6 0 11 6 11 14 0 8 8
17 18 20 9 2 4 4 -13 3 -23 -2 -30 3 -36 23 -7 25 -7 25 -14 3 -7 -22 -41 -40
-53 -28 -4 3 0 11 8 16 12 8 10 9 -7 4 -12 -3 -24 -1 -28 5 -3 5 -1 10 5 10 7
0 21 11 32 25 10 13 22 24 26 23 4 -1 14 2 23 6 21 9 74 -37 64 -55 -5 -7 -3
-10 6 -7 8 3 14 15 14 27 0 12 7 26 14 30 22 14 4 28 -29 23 -16 -2 -36 0 -43
6 -8 7 -18 7 -27 2 -25 -16 -40 -11 -40 13 0 32 10 40 26 19 12 -16 13 -15 14
7 0 17 4 22 16 17 9 -3 18 -6 20 -6 3 0 3 -4 0 -8 -2 -4 -1 -14 4 -21 10 -18
60 -6 60 14 0 9 -6 12 -15 9 -8 -4 -12 -10 -9 -15 3 -5 -3 -6 -12 -2 -16 6
-15 8 4 21 l22 15 -21 18 c-15 13 -19 22 -12 31 5 7 13 22 17 33 6 16 5 18 -5
7 -18 -17 -32 -15 -25 3 3 8 1 15 -4 15 -6 0 -10 -7 -10 -15 0 -8 -4 -15 -9
-15 -5 0 -8 8 -7 18 0 10 -5 16 -13 14 -7 -2 -24 7 -36 18 -13 13 -25 17 -29
12 -3 -6 0 -12 6 -15 9 -3 7 -11 -7 -26 -18 -19 -24 -20 -53 -9 -33 13 -43 28
-18 28 8 0 18 5 22 12 5 7 2 9 -7 6 -50 -21 -52 -21 -45 -10 4 7 2 12 -3 12
-16 0 -13 -16 5 -35 11 -10 13 -20 6 -28 -5 -7 -12 -25 -16 -40 -6 -24 -9 -27
-21 -17 -12 10 -15 9 -15 -4 0 -18 -15 -22 -25 -6 -3 6 -1 10 4 10 18 0 12 21
-11 41 l-23 18 30 1 c51 0 12 21 -43 22 -28 1 -49 5 -46 10 3 5 10 6 15 3 5
-4 9 -2 9 4 0 7 8 7 26 1 36 -14 51 -12 30 3 -16 12 -17 15 -3 20 9 3 18 0 21
-8 3 -8 12 -12 20 -9 8 3 12 12 9 20 -8 22 80 54 92 33 4 -6 0 -9 -8 -7 -9 2
-16 -1 -16 -7 -1 -5 4 -10 10 -10 7 0 15 -9 19 -20 7 -20 7 -20 14 1 9 29 5
43 -23 83 -19 27 -21 35 -10 42 11 8 10 12 -5 24 -23 17 -28 18 -81 5 -35 -8
-42 -7 -58 12 -10 11 -20 18 -23 15 -4 -3 1 -13 10 -22 17 -18 22 -40 6 -30
-5 3 -10 -3 -10 -14 0 -16 -6 -21 -27 -21 -24 1 -25 2 -10 11 21 13 22 29 1
29 -10 0 -14 6 -11 14 3 7 0 13 -6 13 -35 -1 -49 4 -44 16 3 8 1 20 -4 28 -6
10 -9 10 -9 1 0 -23 -40 10 -61 50 -23 45 -23 43 -2 63 15 16 15 19 -2 47 -10
17 -14 28 -9 25 5 -3 18 1 29 9 17 13 18 16 5 24 -12 8 -9 10 10 10 15 0 32
-6 39 -12 11 -11 12 -8 7 15 -5 22 -3 27 13 27 20 0 37 17 28 27 -3 3 -28 5
-56 5 -31 -1 -54 4 -61 14 -16 18 -36 18 -43 0 -4 -9 -14 -12 -27 -9 -19 5
-19 7 -4 18 13 9 14 14 4 20 -7 4 -16 2 -20 -5 -5 -8 -10 -9 -14 -2 -4 6 -14
8 -23 5 -12 -5 -10 0 5 15 12 12 33 22 47 22 30 0 32 10 6 32 -17 15 -20 15
-25 1 -5 -12 -19 -14 -66 -10 -33 2 -63 1 -66 -4 -10 -17 -26 -9 -21 10 3 11
-1 22 -8 25 -21 8 -119 -6 -128 -18 -5 -7 -11 -5 -18 7 -15 26 -29 21 -29 -12
0 -20 -10 -38 -31 -58 -17 -15 -37 -41 -46 -58 -9 -16 -19 -32 -22 -35 -4 -3
-17 -22 -30 -42 -25 -43 -57 -53 -46 -15 4 12 15 34 26 49 10 15 19 34 19 42
0 15 -45 31 -60 21 -13 -8 -13 7 1 42 9 23 7 30 -9 44 -12 10 -32 14 -50 11
-27 -4 -30 -8 -35 -49 -4 -35 0 -56 17 -90 43 -84 7 -141 -72 -114 -62 21
-102 41 -102 51 0 6 -8 10 -17 10 -18 1 -63 75 -63 105 0 8 -4 15 -9 15 -5 0
-11 9 -14 20 -3 12 0 20 8 20 16 0 28 28 18 43 -4 6 -6 30 -4 54 1 26 -2 43
-8 43 -6 0 -11 6 -11 14 0 9 8 12 25 8 18 -3 25 0 25 12 0 19 -13 20 -41 5
-15 -8 -25 -6 -45 10 -14 11 -49 23 -79 26 -43 6 -54 11 -59 29 -10 36 -7 95
6 116 10 15 9 23 -7 40 -16 18 -26 20 -79 14 -34 -4 -64 -11 -68 -17 -3 -6 -8
1 -10 14 -1 13 -6 20 -9 14z m55 -346 c12 -63 7 -97 -15 -104 -29 -10 -69 14
-68 39 2 43 16 71 39 83 35 18 37 17 44 -18z m919 -56 c-7 -2 -19 -2 -25 0 -7
3 -2 5 12 5 14 0 19 -2 13 -5z m254 -126 c3 -4 -5 -7 -20 -7 -14 0 -28 4 -32
9 -6 11 41 8 52 -2z m38 3 c3 -5 1 -10 -4 -10 -6 0 -11 5 -11 10 0 6 2 10 4
10 3 0 8 -4 11 -10z m-195 -36 c-14 -35 -14 -34 28 -35 33 0 34 -1 14 -10 -13
-5 -21 -13 -17 -19 8 -13 -26 0 -42 16 -10 9 -9 19 3 43 19 38 27 41 14 5z
m60 22 c0 -2 -8 -10 -17 -17 -16 -13 -17 -12 -4 4 13 16 21 21 21 13z m80 -46
c0 -5 -8 -10 -17 -10 -15 0 -16 2 -3 10 19 12 20 12 20 0z m75 -60 c-3 -5 -11
-10 -16 -10 -6 0 -7 5 -4 10 3 6 11 10 16 10 6 0 7 -4 4 -10z m-26 -47 c3 -2
-7 -2 -21 -1 -17 1 -24 7 -21 15 4 11 9 11 22 1 9 -7 18 -14 20 -15z m-24 -68
c3 -20 8 -41 11 -46 3 -5 0 -9 -6 -9 -15 0 -30 43 -18 51 7 4 6 9 0 13 -6 4
-9 13 -5 22 8 21 13 13 18 -31z m106 -62 c13 -16 12 -17 -3 -4 -17 13 -22 21
-14 21 2 0 10 -8 17 -17z m-1 -37 c0 -3 -4 -8 -10 -11 -5 -3 -10 -1 -10 4 0 6
5 11 10 11 6 0 10 -2 10 -4z m251 -38 c11 -21 11 -22 -4 -9 -10 7 -17 17 -17
22 0 15 9 10 21 -13z m-61 2 c0 -5 -7 -10 -16 -10 -8 0 -12 5 -9 10 3 6 10 10
16 10 5 0 9 -4 9 -10z m-195 -29 c3 -5 1 -12 -5 -16 -5 -3 -10 1 -10 9 0 18 6
21 15 7z m85 -31 c0 -5 -2 -10 -4 -10 -3 0 -8 5 -11 10 -3 6 -1 10 4 10 6 0
11 -4 11 -10z m-97 -14 c9 -7 17 -21 17 -30 0 -13 -5 -11 -25 10 -14 15 -25
29 -25 30 0 8 16 3 33 -10z m187 0 c0 -3 -4 -8 -10 -11 -5 -3 -10 -1 -10 4 0
6 5 11 10 11 6 0 10 -2 10 -4z m-157 -97 c27 -24 17 -24 -30 1 -21 11 -46 20
-55 20 -18 0 -24 11 -12 22 8 9 72 -20 97 -43z m387 31 c12 -8 11 -10 -7 -10
-15 0 -23 -6 -23 -17 0 -9 -3 -14 -6 -10 -7 7 5 47 14 47 4 0 14 -5 22 -10z
m-320 -30 c0 -5 -2 -10 -4 -10 -3 0 -8 5 -11 10 -3 6 -1 10 4 10 6 0 11 -4 11
-10z m215 -10 c0 -7 -6 -15 -12 -17 -8 -3 -13 4 -13 17 0 13 5 20 13 18 6 -3
12 -11 12 -18z m-839 -5 c-3 -9 0 -15 9 -15 8 0 19 -9 25 -20 7 -14 7 -20 0
-20 -5 0 -10 -6 -10 -14 0 -8 -4 -18 -10 -21 -6 -4 -8 6 -6 25 3 23 -2 35 -15
43 -23 14 -25 37 -3 37 10 0 14 -6 10 -15z m244 -5 c0 -5 -4 -10 -9 -10 -6 0
-13 5 -16 10 -3 6 1 10 9 10 9 0 16 -4 16 -10z m80 -4 c0 -11 -19 -15 -25 -6
-3 5 1 10 9 10 9 0 16 -2 16 -4z m400 -6 c0 -5 -4 -10 -10 -10 -5 0 -10 5 -10
10 0 6 5 10 10 10 6 0 10 -4 10 -10z m240 -16 c0 -14 -12 -19 -23 -8 -9 9 4
35 14 28 5 -3 9 -12 9 -20z m-376 1 c-6 -13 6 -20 29 -16 4 0 7 -6 7 -15 0 -9
8 -23 18 -30 14 -11 14 -13 2 -14 -15 0 -90 71 -90 84 0 3 9 6 20 6 13 0 18
-5 14 -15z m-4 -68 c0 -5 -14 -6 -31 -2 -22 5 -29 4 -25 -4 4 -6 2 -11 -3 -11
-14 0 -14 6 0 31 9 17 7 21 -12 26 -22 6 -22 7 -3 13 13 5 27 -1 46 -19 16
-14 28 -30 28 -34z m-341 8 c0 -5 -6 -1 -14 9 -8 11 -15 24 -15 30 0 5 7 1 15
-10 8 -10 14 -23 14 -29z m-49 25 c0 -5 -7 -7 -15 -4 -8 4 -15 8 -15 10 0 2 7
4 15 4 8 0 15 -4 15 -10z m510 -9 c0 -18 38 -51 60 -51 5 0 10 8 10 18 0 21
33 56 43 45 12 -11 8 -23 -8 -23 -8 0 -15 -9 -15 -19 0 -15 8 -21 33 -23 17
-2 31 -7 29 -13 -2 -5 7 -13 20 -17 21 -6 22 -6 2 -7 -12 -1 -33 -12 -48 -26
-30 -28 -51 -32 -59 -11 -8 20 18 39 43 31 30 -9 24 4 -7 16 -21 8 -30 6 -47
-10 -22 -20 -22 -20 -54 -1 -20 12 -30 25 -26 32 5 8 11 6 20 -6 7 -11 15 -13
19 -7 3 6 -8 24 -25 41 -35 34 -38 50 -10 50 13 0 20 -7 20 -19z m-307 -21
c19 -23 21 -30 8 -30 -5 0 -16 11 -25 25 -20 30 -8 33 17 5z m-413 -5 c14 -16
10 -18 -14 -9 -9 3 -16 10 -16 15 0 14 16 11 30 -6z m-650 -11 c0 -8 -4 -12
-10 -9 -5 3 -10 10 -10 16 0 5 5 9 10 9 6 0 10 -7 10 -16z m896 1 c9 -8 11
-15 6 -15 -5 0 -15 7 -22 15 -7 8 -9 15 -6 15 4 0 14 -7 22 -15z m-1004 -17
c-7 -7 -12 -8 -12 -2 0 14 12 26 19 19 2 -3 -1 -11 -7 -17z m68 7 c11 -13 10
-14 -4 -9 -9 3 -16 10 -16 15 0 13 6 11 20 -6z m1337 -5 c14 -11 22 -20 18
-20 -4 0 -18 9 -32 20 -14 11 -22 20 -18 20 4 0 18 -9 32 -20z m-783 -6 c9 -3
16 -10 16 -15 0 -14 -26 -10 -40 6 -13 16 -3 20 24 9z m-474 -18 c0 -14 -29
-30 -38 -21 -3 3 0 5 6 5 7 0 12 7 12 15 0 8 5 15 10 15 6 0 10 -6 10 -14z
m1144 0 c-4 -11 5 -16 38 -18 l43 -3 -35 -18 c-34 -18 -35 -18 -49 2 -7 12
-25 22 -40 22 -23 2 -24 2 -3 6 12 2 20 9 17 14 -4 5 3 9 14 9 14 0 19 -5 15
-14z m91 4 c3 -5 1 -10 -4 -10 -6 0 -11 5 -11 10 0 6 2 10 4 10 3 0 8 -4 11
-10z m-1178 -15 c10 -11 13 -24 8 -43 -6 -23 -8 -25 -16 -9 -6 9 -7 22 -4 28
4 5 1 16 -5 24 -16 20 -3 19 17 0z m973 -5 c0 -5 8 -11 18 -11 15 -1 15 -2 -1
-6 -12 -3 -16 -10 -13 -20 10 -24 -3 -34 -27 -20 -12 6 -23 13 -25 14 -2 1 -5
13 -6 27 -3 23 1 26 25 26 16 0 29 -4 29 -10z m240 -22 c0 -6 -7 -7 -16 -4 -9
3 -18 6 -20 6 -3 0 -3 4 1 10 7 11 35 2 35 -12z m-780 2 c0 -5 -4 -10 -10 -10
-5 0 -10 5 -10 10 0 6 5 10 10 10 6 0 10 -4 10 -10z m37 3 c-4 -3 -2 -12 4
-20 15 -18 1 -17 -17 1 -18 19 -18 26 3 26 9 0 13 -3 10 -7z m580 -19 c-3 -3
-12 -4 -19 -1 -8 3 -5 6 6 6 11 1 17 -2 13 -5z m-1116 -19 c-1 -15 -24 -12
-29 3 -3 9 2 13 12 10 10 -1 17 -7 17 -13z m1398 6 c2 0 -2 -7 -8 -15 -16 -20
14 -30 42 -14 25 14 77 19 77 8 0 -12 -108 -42 -129 -35 -21 6 -37 35 -19 35
7 0 7 4 -1 14 -9 11 -7 13 11 11 13 -1 25 -3 27 -4z m-904 -11 c3 -5 -8 -16
-25 -25 -23 -12 -35 -13 -50 -5 -27 15 -25 17 10 12 23 -3 30 0 30 12 0 17 25
22 35 6z m-387 -21 c10 -13 10 -18 0 -22 -8 -3 -14 5 -14 20 -1 13 -1 23 0 21
1 -2 7 -10 14 -19z m22 11 c0 -5 -4 -10 -10 -10 -5 0 -10 5 -10 10 0 6 5 10
10 10 6 0 10 -4 10 -10z m235 -10 c3 -6 -1 -7 -9 -4 -18 7 -21 14 -7 14 6 0
13 -4 16 -10z m575 6 c0 -3 -4 -8 -10 -11 -5 -3 -10 -1 -10 4 0 6 5 11 10 11
6 0 10 -2 10 -4z m34 -11 c-4 -8 -11 -15 -16 -15 -6 0 -5 6 2 15 7 8 14 15 16
15 2 0 1 -7 -2 -15z m100 0 c-4 -8 -8 -15 -10 -15 -2 0 -4 7 -4 15 0 8 4 15
10 15 5 0 7 -7 4 -15z m526 -31 c0 -17 -5 -17 -29 -3 -13 9 -26 9 -49 1 -21
-7 -34 -7 -38 -1 -7 12 -7 12 31 25 35 12 85 -1 85 -22z m-1780 6 c0 -5 -2
-10 -4 -10 -3 0 -8 5 -11 10 -3 6 -1 10 4 10 6 0 11 -4 11 -10z m50 0 c0 -5
-2 -10 -4 -10 -3 0 -8 5 -11 10 -3 6 -1 10 4 10 6 0 11 -4 11 -10z m1034 -5
c3 -8 12 -15 21 -15 8 0 15 -4 15 -10 0 -5 -3 -10 -8 -10 -13 0 -52 30 -52 41
0 15 17 10 24 -6z m36 5 c0 -5 -5 -10 -11 -10 -5 0 -7 5 -4 10 3 6 8 10 11 10
2 0 4 -4 4 -10z m-500 -10 c0 -13 -11 -13 -30 0 -12 8 -11 10 8 10 12 0 22 -4
22 -10z m340 -7 c0 -7 -7 -10 -15 -7 -10 4 -15 0 -15 -11 0 -9 -4 -13 -10 -10
-5 3 -10 1 -10 -4 0 -6 -4 -11 -10 -11 -5 0 -10 12 -10 28 0 24 3 27 35 27 21
0 35 -5 35 -12z m-170 -3 c0 -5 -5 -10 -11 -10 -5 0 -7 5 -4 10 3 6 8 10 11
10 2 0 4 -4 4 -10z m833 -2 c15 -7 27 -17 27 -22 0 -5 -3 -6 -7 -3 -3 4 -12 2
-20 -5 -11 -8 -12 -7 -7 6 4 10 1 16 -9 16 -9 0 -19 5 -22 10 -8 13 5 13 38
-2z m-1338 -18 c3 -5 2 -10 -4 -10 -5 0 -13 5 -16 10 -3 6 -2 10 4 10 5 0 13
-4 16 -10z m1441 -37 c-10 -10 -35 18 -29 33 4 12 8 11 20 -6 8 -12 12 -24 9
-27z m-1256 27 c8 -5 11 -10 5 -10 -5 0 -17 5 -25 10 -8 5 -10 10 -5 10 6 0
17 -5 25 -10z m-480 -15 c0 -9 -6 -12 -15 -9 -8 4 -15 10 -15 15 0 5 7 9 15 9
8 0 15 -7 15 -15z m1775 5 c3 -5 -1 -10 -10 -10 -9 0 -13 5 -10 10 3 6 8 10
10 10 2 0 7 -4 10 -10z m-105 -4 c0 -3 -4 -8 -10 -11 -5 -3 -10 -1 -10 4 0 6
5 11 10 11 6 0 10 -2 10 -4z m-1096 -34 c-16 -16 -31 -24 -33 -19 -2 5 -7 3
-12 -4 -7 -11 -9 -11 -9 -1 0 7 7 15 15 18 8 4 15 12 15 20 0 8 11 14 26 14
l27 0 -29 -28z m249 21 c-7 -2 -19 -2 -25 0 -7 3 -2 5 12 5 14 0 19 -2 13 -5z
m-363 -13 c0 -5 -4 -10 -10 -10 -5 0 -10 5 -10 10 0 6 5 10 10 10 6 0 10 -4
10 -10z m430 -10 c12 -8 9 -10 -12 -10 -16 0 -28 5 -28 10 0 13 20 13 40 0z
m-55 -9 c-3 -6 3 -14 12 -20 16 -9 16 -10 1 -11 -15 0 -48 24 -48 36 0 2 9 4
21 4 11 0 18 -4 14 -9z m-855 -32 c0 -12 -43 6 -48 20 -3 9 2 9 22 0 14 -7 26
-16 26 -20z m1675 21 c3 -5 -1 -10 -9 -10 -9 0 -16 5 -16 10 0 6 4 10 9 10 6
0 13 -4 16 -10z m-1729 -38 c-6 -5 -36 23 -36 34 0 4 9 -1 20 -11 11 -10 18
-20 16 -23z"/>
<path d="M2349 1486 c7 -9 19 -16 27 -16 7 0 18 -8 23 -17 6 -10 11 -13 11 -7
0 18 -24 42 -50 49 -22 7 -23 6 -11 -9z"/>
<path d="M2990 1400 c0 -5 5 -10 10 -10 6 0 10 5 10 10 0 6 -4 10 -10 10 -5 0
-10 -4 -10 -10z"/>
<path d="M2700 1366 c0 -2 8 -10 18 -17 15 -13 16 -12 3 4 -13 16 -21 21 -21
13z"/>
<path d="M2920 1328 c0 -4 4 -8 9 -8 6 0 12 4 15 8 3 5 -1 9 -9 9 -8 0 -15 -4
-15 -9z"/>
<path d="M2560 1320 c0 -5 5 -10 11 -10 5 0 7 5 4 10 -3 6 -8 10 -11 10 -2 0
-4 -4 -4 -10z"/>
<path d="M2860 1301 c0 -5 7 -11 14 -14 10 -4 13 -1 9 9 -6 15 -23 19 -23 5z"/>
<path d="M2060 1199 c0 -5 5 -7 10 -4 6 3 10 8 10 11 0 2 -4 4 -10 4 -5 0 -10
-5 -10 -11z"/>
<path d="M2007 1193 c-12 -11 -8 -23 8 -23 8 0 15 7 15 15 0 16 -12 20 -23 8z"/>
<path d="M2635 1189 c-12 -19 5 -23 22 -6 16 16 16 17 1 17 -9 0 -20 -5 -23
-11z"/>
<path d="M2960 1192 c0 -4 9 -13 20 -20 19 -12 20 -11 8 8 -13 20 -28 27 -28
12z"/>
<path d="M2365 1169 c-9 -14 -2 -20 14 -10 8 6 9 11 3 15 -6 3 -14 1 -17 -5z"/>
<path d="M2850 1169 c0 -5 5 -7 10 -4 6 3 10 8 10 11 0 2 -4 4 -10 4 -5 0 -10
-5 -10 -11z"/>
<path d="M2390 1145 c-8 -9 -8 -15 -2 -15 12 0 26 19 19 26 -2 2 -10 -2 -17
-11z"/>
<path d="M643 1128 c-13 -6 -23 -15 -23 -20 0 -4 -9 -8 -19 -8 -11 0 -23 -5
-26 -10 -4 -6 -34 -24 -68 -42 -34 -17 -64 -33 -67 -37 -10 -12 -109 -43 -119
-36 -6 3 -9 0 -6 -7 4 -9 -8 -19 -32 -27 -21 -8 -56 -22 -78 -31 -22 -10 -60
-25 -85 -35 -104 -38 -120 -48 -120 -73 0 -20 4 -22 23 -16 12 3 27 11 34 16
23 18 76 28 90 17 8 -7 13 -8 13 -1 0 5 9 12 21 15 13 4 18 10 14 18 -6 9 -1
10 19 5 18 -4 25 -3 21 4 -3 5 -1 10 6 10 12 0 78 29 139 61 19 10 34 23 33
29 -2 5 6 10 16 10 26 0 101 41 95 52 -3 4 4 8 15 8 11 0 36 16 55 35 20 19
42 35 49 35 8 0 22 9 32 20 21 23 6 26 -32 8z"/>
<path d="M2850 1136 c0 -14 49 -24 77 -16 28 8 27 8 -9 9 -20 1 -43 4 -52 7
-9 3 -16 3 -16 0z"/>
<path d="M2944 1074 c3 -9 6 -19 6 -22 0 -9 20 21 20 31 0 4 -7 7 -16 7 -11 0
-14 -5 -10 -16z"/>
<path d="M470 1060 c-13 -8 -12 -10 3 -10 9 0 17 5 17 10 0 12 -1 12 -20 0z"/>
<path d="M2970 1061 c0 -6 5 -13 10 -16 6 -3 10 1 10 9 0 9 -4 16 -10 16 -5 0
-10 -4 -10 -9z"/>
<path d="M2656 1049 c3 -6 1 -15 -6 -19 -20 -12 -3 -40 24 -40 14 0 28 -5 31
-10 4 -6 10 -8 15 -5 5 3 11 1 15 -4 6 -11 34 -4 51 14 8 7 0 11 -28 11 -31 1
-46 8 -68 33 -28 30 -48 42 -34 20z"/>
<path d="M2790 1040 c0 -5 5 -10 11 -10 5 0 7 5 4 10 -3 6 -8 10 -11 10 -2 0
-4 -4 -4 -10z"/>
<path d="M410 1030 c-18 -12 -2 -12 25 0 13 6 15 9 5 9 -8 0 -22 -4 -30 -9z"/>
<path d="M2553 1025 c-3 -9 -3 -19 1 -22 3 -4 6 1 6 10 0 8 6 18 13 20 9 4 9
6 -1 6 -7 1 -15 -6 -19 -14z"/>
<path d="M2611 1011 c-10 -6 -10 -10 -1 -16 13 -8 24 -1 19 14 -3 6 -10 7 -18
2z"/>
<path d="M3116 995 c4 -8 11 -15 16 -15 6 0 5 6 -2 15 -7 8 -14 15 -16 15 -2
0 -1 -7 2 -15z"/>
<path d="M268 963 c7 -3 16 -2 19 1 4 3 -2 6 -13 5 -11 0 -14 -3 -6 -6z"/>
<path d="M2875 960 c3 -5 8 -10 11 -10 2 0 4 5 4 10 0 6 -5 10 -11 10 -5 0 -7
-4 -4 -10z"/>
<path d="M2925 960 c4 -6 11 -8 16 -5 14 9 11 15 -7 15 -8 0 -12 -5 -9 -10z"/>
<path d="M2668 933 c12 -2 22 -9 22 -14 0 -5 4 -9 8 -9 5 0 9 7 9 15 0 10 -10
15 -31 14 -24 -1 -26 -3 -8 -6z"/>
<path d="M2857 934 c-13 -13 5 -24 36 -24 30 1 31 1 13 15 -21 16 -39 19 -49
9z"/>
<path d="M93 901 c-23 -9 -45 -20 -49 -24 -4 -4 -16 -7 -26 -7 -10 0 -18 -4
-18 -9 0 -11 41 0 97 25 17 8 38 14 46 14 9 0 19 5 22 10 9 14 -24 11 -72 -9z"/>
<path d="M2545 900 c-3 -5 -1 -10 4 -10 6 0 11 5 11 10 0 6 -2 10 -4 10 -3 0
-8 -4 -11 -10z"/>
<path d="M2731 884 c-22 -23 -22 -24 -3 -24 11 0 22 -7 26 -15 4 -11 13 -14
31 -9 29 7 33 -3 8 -21 -15 -11 -22 -10 -45 7 -41 28 -34 5 7 -26 37 -29 45
-46 20 -46 -9 0 -15 -9 -15 -22 -1 -21 -2 -21 -11 -5 -5 9 -15 17 -21 17 -14
0 18 -47 59 -87 32 -32 63 -43 63 -23 0 5 8 6 18 3 16 -6 16 -6 0 10 -18 19
-48 23 -48 7 0 -5 -4 -10 -10 -10 -5 0 -10 4 -10 9 0 21 101 33 108 13 2 -7 8
-12 14 -12 6 0 8 7 4 15 -4 10 1 15 15 15 15 0 17 3 8 13 -7 7 -30 11 -60 9
-32 -3 -49 0 -49 8 0 6 6 8 13 4 6 -4 1 5 -12 19 -33 36 -18 48 17 14 31 -29
44 -35 36 -14 -3 8 3 20 12 28 13 11 18 11 21 1 5 -13 23 -7 23 9 0 15 -58 10
-68 -6 -7 -14 -12 -13 -35 5 -15 12 -24 26 -21 31 4 6 11 6 19 -1 13 -10 115
-12 143 -2 21 7 13 25 -9 19 -15 -4 -19 -2 -15 9 5 12 1 14 -15 9 -20 -7 -21
-4 -15 21 6 24 5 26 -8 15 -8 -7 -13 -18 -10 -26 4 -9 -7 -15 -35 -20 -45 -7
-65 0 -57 21 6 16 -29 20 -39 4 -4 -6 -11 -8 -16 -4 -5 3 -7 9 -4 14 3 4 2 17
-2 29 -8 19 -8 19 -32 -5z m79 -104 c0 -5 -7 -7 -15 -4 -8 4 -15 8 -15 10 0 2
7 4 15 4 8 0 15 -4 15 -10z"/>
<path d="M3061 894 c0 -11 3 -14 6 -6 3 7 2 16 -1 19 -3 4 -6 -2 -5 -13z"/>
<path d="M2978 889 c-4 -10 1 -25 13 -38 23 -25 31 -27 23 -6 -4 8 -10 15 -14
15 -5 0 -10 10 -12 23 -3 18 -4 19 -10 6z"/>
<path d="M3250 890 c0 -5 5 -10 10 -10 6 0 10 5 10 10 0 6 -4 10 -10 10 -5 0
-10 -4 -10 -10z"/>
<path d="M3022 874 c3 -17 21 -21 26 -6 1 5 -4 12 -13 16 -11 4 -15 1 -13 -10z"/>
<path d="M3178 882 c-19 -4 -24 -17 -10 -26 11 -7 35 10 31 21 -2 5 -12 7 -21
5z"/>
<path d="M2862 860 c13 -20 28 -27 28 -12 0 4 -9 13 -20 20 -19 12 -20 11 -8
-8z"/>
<path d="M2437 863 c-4 -3 -7 -13 -7 -21 0 -12 3 -12 15 -2 8 6 20 8 27 4 10
-6 9 -3 -1 9 -14 18 -24 21 -34 10z"/>
<path d="M3220 862 c0 -4 7 -18 16 -31 16 -23 16 -23 -7 -16 -21 7 -22 6 -10
-9 10 -12 17 -13 27 -5 7 6 18 8 23 4 7 -3 8 0 5 9 -3 9 -10 16 -14 16 -5 0
-12 9 -15 20 -6 19 -25 28 -25 12z"/>
<path d="M2604 846 c-3 -8 -4 -22 -2 -30 2 -11 8 -7 20 14 15 26 15 30 2 30
-8 0 -17 -6 -20 -14z"/>
<path d="M3080 840 c27 -20 37 -19 23 2 -4 7 -17 14 -28 15 -17 1 -17 -1 5
-17z"/>
<path d="M627 820 c-10 -16 -24 -30 -31 -30 -8 0 -17 -7 -20 -16 -3 -8 -10
-12 -16 -9 -5 3 -10 -1 -10 -9 0 -9 -3 -16 -8 -16 -4 0 -12 -10 -17 -22 -7
-16 -17 -22 -33 -20 -15 2 -31 -7 -48 -28 -15 -17 -32 -29 -38 -27 -12 5 -135
-58 -151 -77 -5 -6 -27 -20 -48 -30 -21 -9 -41 -24 -44 -32 -3 -8 -15 -14 -27
-14 -12 0 -27 -5 -34 -12 -7 -7 -29 -12 -50 -13 -24 0 -36 -4 -34 -12 1 -7 -2
-13 -8 -13 -6 0 -10 -80 -10 -220 l0 -220 311 0 c280 0 311 2 305 16 -3 9 -6
20 -6 25 0 5 -7 9 -15 9 -8 0 -15 6 -15 14 0 19 27 46 46 46 17 0 18 6 4 23
-6 7 -17 21 -25 32 -13 19 -15 19 -31 3 -11 -11 -18 -32 -18 -55 1 -21 -1 -30
-3 -20 -5 18 -29 24 -35 7 -1 -6 -3 17 -3 50 0 33 4 60 8 60 5 0 2 6 -5 14 -7
7 -19 23 -27 34 -11 15 -18 18 -27 11 -8 -7 -15 -6 -20 2 -4 7 -2 15 4 17 7 2
12 10 12 18 0 20 18 17 23 -3 3 -10 5 -4 6 13 1 31 31 72 31 43 0 -8 8 -4 20
9 30 32 24 46 -9 23 -33 -24 -60 -29 -43 -8 7 8 7 18 2 27 -11 18 -4 30 20 30
16 0 18 6 13 54 -4 34 -2 56 6 60 6 4 11 18 11 32 0 16 6 24 18 24 9 0 28 16
41 35 13 19 31 37 41 40 10 3 22 19 25 35 4 17 11 30 16 30 5 0 9 5 9 10 0 15
-19 12 -37 -5 -30 -30 -31 -3 -3 45 26 43 27 50 12 50 -10 0 -26 -13 -35 -30z
m-177 -460 c0 -5 -2 -10 -4 -10 -3 0 -8 5 -11 10 -3 6 -1 10 4 10 6 0 11 -4
11 -10z m-30 -14 c0 -3 -4 -8 -10 -11 -5 -3 -10 -1 -10 4 0 6 5 11 10 11 6 0
10 -2 10 -4z m-207 -63 c-7 -2 -19 -2 -25 0 -7 3 -2 5 12 5 14 0 19 -2 13 -5z
m-83 -183 c0 -5 -7 -10 -15 -10 -8 0 -15 5 -15 10 0 6 7 10 15 10 8 0 15 -4
15 -10z"/>
<path d="M2510 827 c0 -30 -3 -31 -29 -17 -13 6 -24 5 -37 -6 -18 -14 -18 -15
3 -9 14 4 25 0 31 -11 8 -14 12 -13 37 10 27 25 28 28 12 43 -16 16 -17 16
-17 -10z"/>
<path d="M3152 833 c26 -31 30 -53 8 -53 -23 0 -26 -22 -7 -39 15 -12 37 3 37
26 0 7 3 13 6 13 17 0 101 -24 112 -33 6 -5 12 -6 12 -1 0 14 -59 44 -73 38
-7 -2 -28 11 -45 31 -18 19 -40 35 -49 35 -14 0 -15 -2 -1 -17z"/>
<path d="M2565 810 c-3 -5 -1 -10 4 -10 6 0 11 5 11 10 0 6 -2 10 -4 10 -3 0
-8 -4 -11 -10z"/>
<path d="M2696 794 c-10 -26 -7 -46 7 -41 6 2 11 15 9 28 l-2 24 13 -23 c7
-12 16 -20 19 -16 7 6 -22 44 -33 44 -4 0 -10 -7 -13 -16z"/>
<path d="M2630 784 c0 -14 43 -11 47 3 2 6 -7 10 -22 9 -14 0 -25 -6 -25 -12z"/>
<path d="M2565 770 c3 -5 8 -10 11 -10 2 0 4 5 4 10 0 6 -5 10 -11 10 -5 0 -7
-4 -4 -10z"/>
<path d="M2606 767 c5 -13 0 -17 -22 -18 l-29 -1 33 -9 c20 -6 30 -14 26 -21
-5 -8 0 -9 17 -5 13 4 32 7 42 7 27 0 20 19 -10 26 -16 4 -36 14 -46 22 -16
15 -17 14 -11 -1z"/>
<path d="M3340 758 c0 -10 9 -22 19 -28 26 -13 31 -13 31 5 0 13 -6 17 -26 14
-4 0 -11 5 -15 13 -7 10 -9 9 -9 -4z"/>
<path d="M3070 740 c0 -5 5 -10 10 -10 6 0 10 5 10 10 0 6 -4 10 -10 10 -5 0
-10 -4 -10 -10z"/>
<path d="M3015 700 c3 -5 10 -10 16 -10 5 0 9 5 9 10 0 6 -7 10 -16 10 -8 0
-12 -4 -9 -10z"/>
<path d="M3156 685 c4 -8 10 -12 15 -9 11 6 2 24 -11 24 -5 0 -7 -7 -4 -15z"/>
<path d="M2990 670 c0 -5 7 -10 15 -10 8 0 15 5 15 10 0 6 -7 10 -15 10 -8 0
-15 -4 -15 -10z"/>
<path d="M2957 654 c3 -7 9 -14 14 -14 14 0 10 17 -5 23 -10 4 -13 1 -9 -9z"/>
<path d="M3230 660 c0 -5 5 -10 10 -10 6 0 10 5 10 10 0 6 -4 10 -10 10 -5 0
-10 -4 -10 -10z"/>
<path d="M2756 635 c4 -8 10 -15 16 -15 5 0 16 -7 25 -15 8 -8 19 -13 24 -9 5
3 -7 16 -26 30 -42 28 -46 29 -39 9z"/>
<path d="M3122 630 c0 -14 2 -19 5 -12 2 6 2 18 0 25 -3 6 -5 1 -5 -13z"/>
<path d="M3143 630 c-12 -28 -12 -46 0 -42 4 1 7 -7 7 -19 0 -15 5 -19 15 -15
9 3 15 -1 15 -11 0 -12 3 -13 14 -4 16 13 14 73 -3 79 -6 2 -11 -4 -11 -14 0
-25 -17 -5 -22 26 l-4 25 -11 -25z"/>
<path d="M2857 613 c-4 -3 -7 -13 -7 -21 0 -11 3 -12 14 -3 11 9 15 6 18 -13
3 -16 0 -27 -10 -31 -8 -3 -13 -8 -10 -10 10 -10 36 7 41 26 6 22 27 26 27 4
0 -10 6 -12 18 -8 14 6 15 4 4 -9 -10 -13 -10 -17 3 -22 23 -8 19 26 -5 47
-11 9 -25 17 -31 17 -5 0 -8 4 -5 9 3 5 -4 11 -17 15 -28 7 -32 7 -40 -1z"/>
<path d="M3058 575 c-6 -29 0 -32 18 -7 17 22 17 32 0 32 -7 0 -16 -11 -18
-25z"/>
<path d="M3245 580 c5 -16 0 -22 -21 -31 -23 -8 -25 -12 -14 -19 12 -8 10 -10
-7 -10 -13 0 -23 -4 -23 -9 0 -11 36 -21 75 -21 l30 1 -22 18 c-26 22 -29 31
-10 31 6 0 17 11 24 25 6 14 7 23 3 20 -5 -3 -11 -1 -15 5 -11 18 -27 11 -20
-10z"/>
<path d="M3315 570 c-3 -5 -1 -10 4 -10 6 0 11 5 11 10 0 6 -2 10 -4 10 -3 0
-8 -4 -11 -10z"/>
<path d="M3316 524 c-9 -23 -8 -24 17 -15 21 8 29 10 45 12 10 1 -30 17 -44
18 -7 1 -15 -6 -18 -15z"/>
<path d="M3057 512 c-19 -21 -22 -32 -7 -32 6 0 10 7 10 15 0 8 7 15 15 15 8
0 15 5 15 10 0 16 -15 12 -33 -8z"/>
<path d="M3100 519 c0 -5 9 -9 20 -9 11 0 20 2 20 4 0 2 -9 6 -20 9 -11 3 -20
1 -20 -4z"/>
<path d="M2988 503 c7 -3 16 -2 19 1 4 3 -2 6 -13 5 -11 0 -14 -3 -6 -6z"/>
<path d="M3062 470 c-12 -12 -22 -17 -22 -11 0 15 -31 22 -46 10 -7 -6 -18 -8
-24 -4 -12 7 -40 -12 -40 -27 0 -6 7 -8 14 -5 10 4 13 1 10 -7 -3 -8 1 -20 9
-27 7 -7 11 -23 9 -36 -5 -28 18 -32 25 -4 3 13 11 17 24 14 18 -5 18 -6 3
-18 -16 -11 -16 -12 0 -18 23 -9 20 -27 -5 -27 -11 0 -17 -5 -14 -10 10 -16
45 8 45 30 0 25 9 25 26 3 13 -17 15 -17 29 2 14 18 14 20 -2 26 -10 3 -18 12
-18 20 0 9 -11 13 -32 12 -22 -2 -33 2 -37 15 -3 9 -9 23 -12 30 -4 9 1 12 17
11 43 -4 67 1 72 14 2 6 3 4 1 -6 -1 -9 6 -22 16 -27 23 -13 34 0 13 15 -15
11 -15 15 -4 29 12 14 10 16 -11 16 -13 0 -34 -9 -46 -20z"/>
<path d="M3145 480 c-3 -5 3 -10 15 -10 12 0 18 5 15 10 -3 6 -10 10 -15 10
-5 0 -12 -4 -15 -10z"/>
<path d="M560 454 c0 -8 5 -12 10 -9 6 3 10 10 10 16 0 5 -4 9 -10 9 -5 0 -10
-7 -10 -16z"/>
<path d="M3170 415 c0 -8 5 -15 10 -15 6 0 10 7 10 15 0 8 -4 15 -10 15 -5 0
-10 -7 -10 -15z"/>
<path d="M3216 423 c-11 -11 -6 -23 9 -23 8 0 15 4 15 9 0 13 -16 22 -24 14z"/>
<path d="M3290 340 c0 -5 5 -10 10 -10 6 0 10 5 10 10 0 6 -4 10 -10 10 -5 0
-10 -4 -10 -10z"/>
<path d="M3105 288 l-20 -21 22 12 c23 12 40 31 26 30 -4 0 -17 -10 -28 -21z"/>
<path d="M3053 283 c-18 -7 -16 -23 2 -23 8 0 15 7 15 15 0 8 -1 15 -2 14 -2
0 -9 -3 -15 -6z"/>
<path d="M2980 220 c0 -5 7 -10 15 -10 8 0 15 5 15 10 0 6 -7 10 -15 10 -8 0
-15 -4 -15 -10z"/>
<path d="M2380 180 c0 -5 5 -10 10 -10 6 0 10 5 10 10 0 6 -4 10 -10 10 -5 0
-10 -4 -10 -10z"/>
<path d="M2361 144 c0 -11 3 -14 6 -6 3 7 2 16 -1 19 -3 4 -6 -2 -5 -13z"/>
<path d="M2402 122 c8 -30 -18 -36 -51 -12 -21 14 -35 17 -57 11 -23 -6 -25
-8 -10 -14 9 -4 14 -11 11 -17 -3 -5 -2 -10 3 -10 6 0 13 8 16 17 6 14 9 12
21 -11 19 -37 19 -37 -10 -30 -15 4 -25 2 -25 -5 0 -9 9 -13 30 -13 3 0 15 3
28 7 16 5 22 2 22 -9 0 -9 -7 -16 -15 -16 -8 0 -15 -4 -15 -10 0 -5 11 -10 25
-10 14 0 25 5 25 10 0 14 37 12 43 -2 3 -9 11 -5 23 11 16 22 18 22 29 7 11
-14 14 -15 25 -1 7 8 21 15 31 15 10 0 20 4 23 9 4 5 -12 7 -36 4 -52 -5 -111
22 -102 49 3 11 -3 21 -17 29 -20 10 -21 9 -17 -9z m43 -71 c3 -5 1 -12 -5
-16 -5 -3 -10 1 -10 9 0 18 6 21 15 7z"/>
<path d="M2605 120 c3 -5 11 -10 16 -10 6 0 7 5 4 10 -3 6 -11 10 -16 10 -6 0
-7 -4 -4 -10z"/>
<path d="M3095 120 c3 -5 10 -10 16 -10 5 0 9 5 9 10 0 6 -7 10 -16 10 -8 0
-12 -4 -9 -10z"/>
<path d="M2520 100 c0 -5 5 -10 11 -10 5 0 7 5 4 10 -3 6 -8 10 -11 10 -2 0
-4 -4 -4 -10z"/>
<path d="M2085 90 c-3 -5 -4 -10 -1 -10 2 0 11 -3 20 -6 11 -4 16 -1 16 10 0
18 -25 22 -35 6z"/>
<path d="M2477 74 c3 -7 9 -14 14 -14 14 0 10 17 -5 23 -10 4 -13 1 -9 -9z"/>
<path d="M2180 50 c0 -5 7 -7 15 -4 8 4 15 8 15 10 0 2 -7 4 -15 4 -8 0 -15
-4 -15 -10z"/>
<path d="M670 25 c0 -20 5 -25 25 -25 20 0 25 5 25 25 0 20 -5 25 -25 25 -20
0 -25 -5 -25 -25z"/>
<path d="M2638 32 c15 -14 18 -22 10 -25 -8 -3 -6 -6 5 -6 11 -1 17 6 17 19 0
11 -4 20 -9 20 -5 0 -18 3 -28 6 -15 5 -14 2 5 -14z"/>
<path d="M2760 26 c0 -21 5 -26 23 -25 12 0 16 3 10 6 -7 2 -13 11 -13 18 0 8
-4 17 -10 20 -6 4 -10 -5 -10 -19z"/>
<path d="M1771 24 c-12 -9 -31 -14 -42 -11 -10 3 -22 1 -25 -4 -3 -5 20 -9 50
-9 42 0 56 4 56 14 0 23 -15 27 -39 10z"/>
<path d="M2180 10 c0 -5 5 -10 10 -10 6 0 10 5 10 10 0 6 -4 10 -10 10 -5 0
-10 -4 -10 -10z"/>
<path d="M2240 10 c0 -5 9 -10 21 -10 11 0 17 4 14 10 -8 13 -35 13 -35 0z"/>
<path d="M2685 10 c-4 -6 7 -10 24 -10 17 0 31 5 31 10 0 6 -11 10 -24 10 -14
0 -28 -4 -31 -10z"/>
</g>
</svg>
